<mxfile host="app.diagrams.net" modified="2022-03-24T13:10:04.963Z" agent="5.0 (X11)" etag="jJKEfidRaM9wTu5H1Z2o" version="17.2.1" type="github">
  <diagram id="g9ijyWYw9M_Xq7lQamkd" name="Page-1">
    <mxGraphModel dx="292" dy="534" grid="1" gridSize="10" guides="1" tooltips="1" connect="1" arrows="1" fold="1" page="1" pageScale="1" pageWidth="827" pageHeight="1169" math="0" shadow="0">
      <root>
        <mxCell id="0" />
        <mxCell id="1" parent="0" />
        <mxCell id="JJhuaBoyiTNXanQFfjCV-1" value="Avion" style="rounded=0;whiteSpace=wrap;html=1;" parent="1" vertex="1">
          <mxGeometry x="60" y="450" width="120" height="30" as="geometry" />
        </mxCell>
        <mxCell id="JJhuaBoyiTNXanQFfjCV-2" value="&lt;div align=&quot;left&quot;&gt;- Immatriculation&lt;/div&gt;&lt;div align=&quot;left&quot;&gt;- Date_achat&lt;/div&gt;&lt;div align=&quot;left&quot;&gt;- Nom_T&lt;br&gt;&lt;/div&gt;" style="rounded=0;whiteSpace=wrap;html=1;align=left;" parent="1" vertex="1">
          <mxGeometry x="60" y="480" width="120" height="60" as="geometry" />
        </mxCell>
        <mxCell id="JJhuaBoyiTNXanQFfjCV-3" value="Intervention" style="rounded=0;whiteSpace=wrap;html=1;" parent="1" vertex="1">
          <mxGeometry x="60" y="555" width="120" height="30" as="geometry" />
        </mxCell>
        <mxCell id="JJhuaBoyiTNXanQFfjCV-4" value="&lt;div&gt;- Num_int&lt;/div&gt;&lt;div&gt;- Immatriculation&lt;/div&gt;&lt;div&gt;- Objet&lt;/div&gt;&lt;div&gt;- Date&lt;/div&gt;&lt;div&gt;- SSN_M&lt;/div&gt;&lt;div&gt;- Heure_debut&lt;/div&gt;&lt;div&gt;- Heure_fin&lt;br&gt;&lt;/div&gt;" style="rounded=0;whiteSpace=wrap;html=1;align=left;" parent="1" vertex="1">
          <mxGeometry x="60" y="585" width="120" height="115" as="geometry" />
        </mxCell>
        <mxCell id="JJhuaBoyiTNXanQFfjCV-5" value="Type avion" style="rounded=0;whiteSpace=wrap;html=1;" parent="1" vertex="1">
          <mxGeometry x="220" y="450" width="120" height="30" as="geometry" />
        </mxCell>
        <mxCell id="JJhuaBoyiTNXanQFfjCV-6" value="&lt;div align=&quot;left&quot;&gt;- Nom_T&lt;/div&gt;&lt;div align=&quot;left&quot;&gt;- Nom_constructeur&lt;/div&gt;&lt;div align=&quot;left&quot;&gt;- Nb_places&lt;br&gt;&lt;/div&gt;" style="rounded=0;whiteSpace=wrap;html=1;" parent="1" vertex="1">
          <mxGeometry x="220" y="480" width="120" height="60" as="geometry" />
        </mxCell>
        <mxCell id="qiZnfcJw_Cnm3kZu3M0U-1" value="MÃ©canicien" style="rounded=0;whiteSpace=wrap;html=1;" vertex="1" parent="1">
          <mxGeometry x="220" y="555" width="120" height="35" as="geometry" />
        </mxCell>
        <mxCell id="qiZnfcJw_Cnm3kZu3M0U-2" value="&lt;div align=&quot;left&quot;&gt;- SSN_M&lt;/div&gt;&lt;div align=&quot;left&quot;&gt;- Nom_M&lt;/div&gt;&lt;div align=&quot;left&quot;&gt;- Adresse_M&lt;/div&gt;&lt;div align=&quot;left&quot;&gt;- Numero_Tel&lt;br&gt;&lt;/div&gt;" style="rounded=0;whiteSpace=wrap;html=1;align=left;" vertex="1" parent="1">
          <mxGeometry x="220" y="590" width="120" height="70" as="geometry" />
        </mxCell>
      </root>
    </mxGraphModel>
  </diagram>
</mxfile>
